<svg xml:space="preserve" viewBox="0 0 1071 408" width="100%" y="0px" x="0px" xmlns:xlink="http://www.w3.org/1999/xlink" xmlns="http://www.w3.org/2000/svg" id="Layer_1" version="1.1">
<path d="M731.991943,247.075317 
	C725.166443,247.076736 718.835266,247.201614 712.512878,247.021835 
	C709.790649,246.944427 708.244202,247.848694 707.157654,250.353531 
	C704.973755,255.388687 702.396423,260.254395 700.249268,265.303864 
	C699.111877,267.978546 697.542664,269.011841 694.602966,268.946228 
	C686.614380,268.768005 678.613281,268.715424 670.628540,268.969055 
	C666.224854,269.108856 665.482666,268.088043 667.536926,264.067291 
	C675.638489,248.210297 683.507996,232.234497 691.430481,216.286285 
	C700.904785,197.214050 710.410217,178.156647 719.728455,159.008255 
	C721.099182,156.191559 722.673767,155.230835 725.771973,155.283859 
	C736.925232,155.474731 748.085510,155.457565 759.239380,155.283966 
	C762.496033,155.233292 763.759888,156.119553 764.311646,159.548035 
	C769.963440,194.666534 775.797302,229.755951 781.683716,264.836151 
	C782.222168,268.045349 781.254639,268.968475 778.147156,268.919159 
	C769.657043,268.784393 761.160217,268.741608 752.672729,268.942505 
	C749.653687,269.013977 748.507446,267.946350 748.259399,265.065125 
	C747.888916,260.761841 747.073181,256.493835 746.777161,252.188126 
	C746.514221,248.364853 745.178162,246.447601 740.973022,247.005798 
	C738.191223,247.375031 735.320740,247.075455 731.991943,247.075317 
z" stroke="none" opacity="1.000000" fill="#4181D5"></path>
<path d="M416.737610,228.696548 
	C428.423340,205.113068 439.987274,181.886093 451.417297,158.593414 
	C452.641052,156.099579 454.177216,155.291046 456.832916,155.315033 
	C468.324615,155.418854 479.818848,155.435822 491.309814,155.294067 
	C494.486023,155.254883 495.457764,156.412720 495.957672,159.532562 
	C501.376190,193.347656 506.953217,227.137573 512.574585,260.919769 
	C513.902344,268.899475 514.052917,268.875153 505.865692,268.876923 
	C498.703552,268.878448 491.538971,268.770508 484.380432,268.931549 
	C481.518707,268.995911 480.188324,268.243530 479.949463,265.143951 
	C479.579498,260.344116 478.447510,255.599792 478.137909,250.799744 
	C477.930267,247.579849 476.439209,247.007767 473.692902,247.033417 
	C463.866669,247.125214 454.036774,247.187225 444.213287,246.999237 
	C441.202148,246.941605 439.681000,248.131897 438.545685,250.713821 
	C436.336731,255.737335 433.801727,260.618988 431.646912,265.664124 
	C430.659637,267.975677 429.371277,268.947601 426.807922,268.911255 
	C418.148651,268.788361 409.485199,268.797150 400.825836,268.925110 
	C397.601624,268.972778 397.132843,268.166809 398.608765,265.256836 
	C404.705322,253.236908 410.605042,241.117126 416.737610,228.696548 
z" stroke="none" opacity="1.000000" fill="#4181D5"></path>
<path d="M603.008240,234.458115 
	C604.812805,241.237686 609.500366,243.753204 615.594177,244.504181 
	C622.448120,245.348846 629.079651,244.977783 634.039124,239.477478 
	C637.677002,235.442825 636.377686,230.473404 631.475952,227.914215 
	C625.026550,224.547028 617.818176,223.833588 610.901611,222.118103 
	C607.021606,221.155762 603.173584,220.149353 599.491089,218.570923 
	C582.763123,211.400818 579.088623,198.748962 584.978088,182.579758 
	C589.215820,170.945312 598.019714,163.426041 609.300293,158.891647 
	C624.351868,152.841400 639.732727,151.803070 655.112122,157.515930 
	C667.603943,162.156174 674.581909,173.138168 673.833679,185.838699 
	C673.634521,189.219208 672.965698,191.324448 668.653687,191.065033 
	C661.683289,190.645706 654.667969,190.891586 647.673645,190.994690 
	C645.195374,191.031219 643.777283,190.702942 643.449036,187.644592 
	C642.975037,183.228165 640.084473,180.677353 635.620483,179.785202 
	C630.744873,178.810760 625.999451,178.955658 621.407715,180.864716 
	C617.724304,182.396149 615.550049,185.131363 615.460205,189.282410 
	C615.376099,193.168243 618.148804,194.804642 621.060059,196.147263 
	C626.857422,198.820862 633.248718,199.348175 639.345093,200.951782 
	C645.315796,202.522308 651.152466,204.366745 656.370239,207.849045 
	C666.094666,214.339111 669.266235,223.533173 667.553772,234.707443 
	C665.114746,250.623413 655.611267,261.018646 640.856812,266.083893 
	C624.718750,271.624146 608.088135,272.189911 591.896423,266.079773 
	C574.572632,259.542419 571.794006,246.008530 573.155090,231.511642 
	C573.371155,229.210449 574.781006,228.963928 576.614136,228.970093 
	C584.276245,228.995865 591.942871,229.130402 599.598999,228.912140 
	C603.975098,228.787384 602.461670,231.942276 603.008240,234.458115 
z" stroke="none" opacity="1.000000" fill="#4181D4"></path>
<path d="M806.495422,249.409897 
	C810.475037,237.364151 807.450500,226.713028 803.011902,215.774551 
	C795.512329,197.292694 789.063721,178.386475 781.981201,159.731567 
	C780.500183,155.830673 781.815369,155.226974 785.331970,155.289230 
	C793.826721,155.439621 802.327576,155.426254 810.822571,155.280945 
	C813.746521,155.230957 815.175476,156.007202 816.081848,159.092239 
	C819.832153,171.857941 823.958435,184.513168 827.944031,197.209793 
	C828.372681,198.575226 828.323303,200.553009 830.026978,200.739609 
	C831.433655,200.893707 831.879395,199.031021 832.564148,197.972778 
	C841.063965,184.836700 849.522522,171.673798 857.945007,158.488007 
	C859.063782,156.736481 860.091797,155.284622 862.536987,155.306595 
	C872.680908,155.397751 882.826233,155.344879 892.995605,155.344879 
	C893.532837,157.741058 891.875610,158.946274 890.893066,160.352295 
	C874.967590,183.141083 859.043762,205.931427 842.990112,228.629837 
	C840.691711,231.879639 839.465637,235.304520 838.877258,239.157013 
	C837.596619,247.542389 836.084961,255.892487 834.803040,264.277710 
	C834.309448,267.506531 833.247070,269.183228 829.424011,268.987885 
	C822.278381,268.622772 815.090149,268.664581 807.939819,268.985779 
	C803.818848,269.170898 803.181335,267.762329 804.009766,264.092438 
	C805.069641,259.397644 805.603821,254.584198 806.495422,249.409897 
z" stroke="none" opacity="1.000000" fill="#4282D5"></path>
<path d="M272.934570,283.024963 
	C272.149933,284.133789 271.612457,284.978302 270.996277,285.760834 
	C268.186676,289.328888 263.654480,290.200928 260.489990,287.806519 
	C257.499481,285.543732 257.026794,281.319763 259.646759,277.520996 
	C265.594757,268.896759 271.644257,260.341888 277.714264,251.802673 
	C283.247101,244.019119 283.282959,244.044601 277.532593,236.419937 
	C264.766693,219.493103 263.933105,195.778717 275.472443,177.811188 
	C286.809326,160.158890 309.114502,151.038528 329.327484,155.790405 
	C351.316315,160.959778 366.645477,177.889084 369.118866,199.735489 
	C373.500214,238.433884 335.793243,267.428833 299.486633,253.132202 
	C295.981079,251.751801 294.311005,252.191681 292.242584,255.302505 
	C286.075409,264.577728 279.538177,273.606842 272.934570,283.024963 
z" stroke="none" opacity="1.000000" fill="#4482D3"></path>
<path d="M565.917603,205.103088 
	C562.546997,225.549057 559.173889,245.553406 555.984497,265.587006 
	C555.579041,268.133759 554.657898,268.942902 552.185974,268.910217 
	C544.359436,268.806763 536.527527,268.756836 528.703857,268.944061 
	C525.462097,269.021637 524.661743,267.865692 525.176208,264.828766 
	C528.313660,246.307632 531.351807,227.769669 534.426331,209.237854 
	C537.146484,192.841766 539.989990,176.464584 542.503845,160.036972 
	C543.081238,156.263687 544.498718,155.111191 548.245789,155.262772 
	C555.562195,155.558685 562.901794,155.464783 570.226196,155.291931 
	C573.472229,155.215317 574.231750,156.364685 573.690369,159.437408 
	C571.036255,174.500793 568.530151,189.590225 565.917603,205.103088 
z" stroke="none" opacity="1.000000" fill="#4282D4"></path>
<path d="M181.358719,133.946854 
	C175.400284,133.661438 172.329468,131.164658 172.354874,126.996201 
	C172.381805,122.576248 175.614746,120.048569 181.436615,120.046402 
	C225.892136,120.029877 270.347656,120.028252 314.803162,120.041008 
	C320.463684,120.042633 323.770477,122.672470 323.829651,127.072617 
	C323.886932,131.330872 320.515106,133.944275 314.682159,133.946686 
	C270.393219,133.965012 226.104294,133.951584 181.358719,133.946854 
z" stroke="none" opacity="1.000000" fill="#4482D1"></path>
<path d="M174.430328,168.900970 
	C171.435822,166.443848 170.183853,163.751877 171.700836,160.325928 
	C173.183624,156.977188 175.951279,156.007385 179.420914,156.014481 
	C203.555954,156.063889 227.691193,156.013214 251.826187,156.072250 
	C257.314117,156.085693 260.173889,158.691086 260.121735,163.198746 
	C260.071320,167.551895 257.356720,169.946548 252.037430,169.955750 
	C227.735870,169.997849 203.434204,169.963013 179.132568,169.974335 
	C177.608734,169.975037 176.144943,169.840149 174.430328,168.900970 
z" stroke="none" opacity="1.000000" fill="#4582D1"></path>
<path d="M207.988556,205.964203 
	C198.191284,205.963104 188.891418,206.003143 179.592133,205.946182 
	C174.176605,205.913010 171.052094,203.280197 171.081268,198.981781 
	C171.110504,194.674866 174.220734,192.060989 179.603058,192.041153 
	C192.389847,191.994034 205.177139,191.984909 217.963837,192.043198 
	C223.490143,192.068390 226.226700,194.456589 226.343491,199.051788 
	C226.456421,203.496277 223.623520,205.840225 217.951706,205.930695 
	C214.797165,205.981049 211.641418,205.955795 207.988556,205.964203 
z" stroke="none" opacity="1.000000" fill="#4582D1"></path>
<path d="M736.832031,224.065613 
	C731.060181,224.061981 725.764160,224.061981 719.471252,224.061981 
	C725.425476,211.385559 731.073914,199.360123 736.722351,187.334702 
	C737.116028,187.373917 737.509644,187.413147 737.903320,187.452377 
	C738.887024,194.191116 739.909851,200.924454 740.839172,207.670700 
	C741.359131,211.444946 741.270142,215.365204 742.267700,218.996597 
	C743.674927,224.119308 741.192322,224.569733 736.832031,224.065613 
z" stroke="none" opacity="1.000000" fill="#F4FBFC"></path>
<path d="M470.805969,195.292999 
	C471.918884,204.130417 472.916321,212.539505 474.093781,220.923309 
	C474.430939,223.324051 473.874573,224.193878 471.336823,224.138474 
	C464.876617,223.997437 458.411285,224.091568 451.095673,224.091568 
	C457.053864,211.377151 462.711639,199.303696 468.659241,186.611847 
	C470.659821,189.621857 469.705170,192.496857 470.805969,195.292999 
z" stroke="none" opacity="1.000000" fill="#F4FBFC"></path>
<path d="M352.560486,190.694794 
	C363.493744,217.384903 343.357727,243.698532 317.262939,242.983093 
	C299.048645,242.483719 284.317993,228.903809 281.357697,209.687744 
	C278.910797,193.804382 289.667969,176.490921 305.537323,170.771057 
	C322.581940,164.627594 341.651398,171.425919 350.523956,186.820999 
	C351.187714,187.972702 351.766144,189.173553 352.560486,190.694794 
z" stroke="none" opacity="1.000000" fill="#FCFEFE"></path>
</svg>